<?xml version="1.0" encoding="utf-8"?>
<!-- Generator: Adobe Illustrator 25.0.1, SVG Export Plug-In . SVG Version: 6.00 Build 0)  -->
<svg version="1.1" id="Capa_1" xmlns="http://www.w3.org/2000/svg" xmlns:xlink="http://www.w3.org/1999/xlink" x="0px" y="0px"
	 viewBox="0 0 1080 1080" style="enable-background:new 0 0 1080 1080;" xml:space="preserve">
<style type="text/css">
	.st0{fill:#FFFFFF;}
</style>
<path class="st0" d="M0,393.91c36.66-35.68,47.75-35.87,80.55-0.31c18.77,20.36,35.1,30.09,52.81-2.3
	c10.33-18.89,25.19-35.48,39.17-52.14c10.44-12.44,18.81-29.65,40.06-8.38c17.95,17.97,15.98,28.38,0.49,45.91
	c-48.91,55.32-82.41,119.64-98.14,191.72c-5.56,25.46-16.26,29.67-38.82,25.64c-26.25-4.69-18.06-21.93-14.49-36.32
	c5.58-22.47,10.88-45.53,20.65-66.3c13.85-29.46-3.69-41.66-25.15-39.07c-26.2,3.16-40.45-10.14-57.13-23.42
	C0,417.27,0,405.59,0,393.91z"/>
<path class="st0" d="M987.49,751.44c-35.41,155.34-188.1,288.65-348.15,307.83c-183.68,22.02-358.75-60.86-435.56-208.84
	C475.19,900.15,736.91,885.43,987.49,751.44z"/>
<path class="st0" d="M616.32,207.29c-75.09-5.83-148.05,3.99-217.5,33.14c-21.03,8.83-31.52,9.66-42.81-14.1
	c-13.05-27.45,6.02-29.68,21.34-35.23c25.86-9.37,52.07-18,78.61-25.16c39.82-10.73,46.46-26.51,19.58-59.09
	c-17.86-21.65-25.67-42.86-9.05-66.87c14.89-21.5,36.58-28.85,61.17-17.38c23.89,11.15,34.31,31,28,57.09
	c-2.67,11.05-11.66,20.83-13.23,31.83c-3.27,23.01-2.45,42.33,31.93,40.45c31.62-1.73,63.67,4.17,95.52,6.74
	c18.48,1.49,25.86,10.93,20.78,29.22c-3.79,13.65-4,29.79-26.7,24.43C648.55,208.72,632.24,208.85,616.32,207.29z"/>
<path class="st0" d="M1063.98,454.23c0.06,19.84-15.22,18.88-24.16,24.23c-11.02,6.58-21.5,6.57-28.59-7.63
	c-37.15-74.39-90.63-134.62-158.77-182.11c-20.32-14.16-0.48-24.63,4.21-36.13c7.23-17.71,18.38-14.37,30.4-4.77
	c17.03,13.61,36.59,24.92,50.83,40.97c29.27,32.99,46.34,22.6,61.05-12.15c9.56-22.58,26.48-35.17,51.84-27.69
	c20.66,6.09,30.22,22.02,29.14,43.31c-1.11,21.84-14.11,35.66-34.7,39c-45.06,7.3-43.27,27.2-19.9,58.38
	C1040.88,410.39,1052.24,434.28,1063.98,454.23z"/>
<path class="st0" d="M1005.31,627.91c-37.65-238.86-248.63-396.69-488.42-364.3c-226.38,30.58-383.21,235.6-360.99,469.04
	c3.01,31.65,16.6,46.55,44.39,55.84c84.03,28.08,170.73,34.95,273.9,35.01c37.2,2.27,89.52-2.72,141.51-9.49
	c128.01-16.68,251.59-46.68,360.76-120.87C1001.49,676.12,1010,657.66,1005.31,627.91z M429.61,719.42
	c-72.34,0.85-131.15-56.82-131.49-128.95c-0.33-71.21,59.46-131.47,130.31-131.3c70.13,0.16,130.4,61.65,129.78,132.41
	C557.59,661.47,500.13,718.59,429.61,719.42z M761.09,656.01c-51.12,0.04-94.53-43.22-95.17-94.84
	c-0.66-53.35,44.36-98.17,97.32-96.88c50.86,1.24,93.77,45.86,93.27,96.99C856,612.52,812.23,655.97,761.09,656.01z"/>
</svg>
