<?xml version="1.0" encoding="utf-8"?>
<!-- Generator: Adobe Illustrator 25.0.1, SVG Export Plug-In . SVG Version: 6.00 Build 0)  -->
<svg version="1.1" id="Capa_1" xmlns="http://www.w3.org/2000/svg" xmlns:xlink="http://www.w3.org/1999/xlink" x="0px" y="0px"
	 viewBox="0 0 185 133.4" style="enable-background:new 0 0 185 133.4;" xml:space="preserve">
<style type="text/css">
	.st0{fill:#FFFFFF;}
</style>
<g id="Layer_2">
	<g id="Layer_1-2">
		<path class="st0" d="M51.1,66.7L51.1,66.7C51,56.9,58.9,49,68.7,49c0,0,0,0,0,0h-0.1c9.8,0,17.7,7.9,17.7,17.7c0,0,0,0,0,0l0,0
			c0,9.8-7.9,17.7-17.7,17.7h0h0.1C59,84.4,51.1,76.5,51.1,66.7z M133.7,35.4h32.9c9.8,0,17.7-7.9,17.7-17.7l0,0
			c0-9.8-7.9-17.7-17.6-17.7c0,0,0,0,0,0h-32.9c-9.8,0-17.7,7.9-17.7,17.7c0,0,0,0,0,0l0,0C116.1,27.5,124,35.4,133.7,35.4z
			 M20.7,133.4h63.9c9.8,0,17.7-7.9,17.7-17.7l0,0l0,0c0-9.8-7.9-17.7-17.6-17.7c0,0,0,0,0,0H20.7c-9.8,0-17.7,7.9-17.7,17.7
			c0,0,0,0,0,0l0,0C3.1,125.5,11,133.4,20.7,133.4z M104.6,84.4h6.2L125.5,49h-8.3l-8.9,23.2h-0.1L99.4,49h-8.9L104.6,84.4z
			 M137.1,84.4h7.8V49h-7.8V84.4z M159.3,84.4h24.9v-7.2h-17.1V70h15.4v-7.2h-15.4v-6.6h16.2V49h-24L159.3,84.4z M10.1,35.4h7.8V6.9
			H28V0H0v6.9h10.1V35.4z M39,35.4h7.8V20.1h15.1v15.3h7.8V0h-7.8v13.2H46.8V0H39V35.4z M80.2,35.4h25v-7.2H88V21h15.3v-7.2H88V7.2
			h16.2V0h-24V35.4z M1.2,84.4H9V57.2h0.1l9,27.2H24l9.3-27.2h0.1v27.2h7.8V49H29.5l-8.2,23.1h-0.1L13,49H1.2L1.2,84.4z
			 M113.3,133.4H126c2.6,0,5.1-0.4,7.6-1.1c2.3-0.7,4.5-1.9,6.4-3.4c1.8-1.5,3.3-3.4,4.4-5.5c1.2-2.4,1.7-5,1.7-7.6
			c0.1-2.8-0.5-5.7-1.7-8.2c-1-2.2-2.6-4.1-4.5-5.5c-2-1.4-4.3-2.5-6.7-3c-2.6-0.7-5.3-1-8.1-1h-11.7L113.3,133.4z M121.1,105.2h4.6
			c1.6,0,3.1,0.2,4.7,0.6c1.4,0.4,2.7,1,3.9,1.9c1.1,0.8,2,1.9,2.6,3.2c0.7,1.4,1,3,1,4.5c0,1.7-0.3,3.5-1,5.1
			c-0.6,1.3-1.5,2.5-2.7,3.3c-1.2,0.9-2.6,1.5-4,1.8c-1.6,0.4-3.3,0.6-5,0.6h-4.2L121.1,105.2z M157.3,133.4h14.5
			c1.6,0,3.2-0.2,4.7-0.5c1.5-0.3,3-0.9,4.3-1.6c1.3-0.7,2.3-1.8,3.1-3c0.8-1.4,1.3-3,1.2-4.7c0-1.1-0.2-2.2-0.6-3.2
			c-0.3-1-0.9-1.9-1.6-2.6c-0.7-0.8-1.5-1.4-2.4-1.8c-1-0.5-2.1-0.8-3.2-1v-0.1c1.7-0.5,3.3-1.5,4.4-2.8c1.1-1.4,1.7-3.2,1.7-5
			c0.1-1.6-0.3-3.2-1.1-4.7c-0.7-1.2-1.8-2.1-3-2.7c-1.3-0.7-2.7-1.1-4.2-1.3c-1.5-0.2-3.1-0.3-4.6-0.3h-13.2V133.4z M165.1,104.6
			h5.3c0.6,0,1.2,0.1,1.9,0.2c0.6,0.1,1.2,0.3,1.7,0.6c0.5,0.3,0.9,0.7,1.2,1.1c0.3,0.5,0.5,1.2,0.5,1.8c0,0.6-0.1,1.2-0.4,1.8
			c-0.3,0.5-0.7,0.9-1.1,1.2c-0.5,0.3-1,0.5-1.6,0.7c-0.6,0.1-1.2,0.2-1.8,0.2H165L165.1,104.6z M165.1,118.7h5.9
			c0.7,0,1.4,0.1,2.1,0.2c0.7,0.1,1.4,0.3,2,0.6c0.6,0.3,1.2,0.7,1.6,1.2c0.4,0.6,0.6,1.3,0.6,2c0,0.7-0.1,1.4-0.5,1.9
			c-0.3,0.5-0.7,1-1.2,1.3c-0.5,0.3-1.1,0.6-1.7,0.7c-0.6,0.1-1.2,0.2-1.8,0.2h-7L165.1,118.7z"/>
	</g>
</g>
</svg>
