<?xml version="1.0" encoding="utf-8"?>
<!-- Generator: Adobe Illustrator 25.0.1, SVG Export Plug-In . SVG Version: 6.00 Build 0)  -->
<svg version="1.1" id="Capa_1" xmlns="http://www.w3.org/2000/svg" xmlns:xlink="http://www.w3.org/1999/xlink" x="0px" y="0px"
	 viewBox="0 0 1080 1080" style="enable-background:new 0 0 1080 1080;" xml:space="preserve">
<style type="text/css">
	.st0{fill:#FFFFFF;}
</style>
<path class="st0" d="M1080,912.43V810.82c-14.92,2.82-30.96,4.28-48.16,4.28c-116.39,0-181.86-65.44-181.86-183.78v-97.45
	c0-118.35,65.47-183.77,181.86-183.77c17.2,0,33.23,1.46,48.16,4.27V135.05H418.25v198.87c0,118.32-65.47,183.77-181.86,183.77
	c-116.4,0-181.86-65.44-181.86-183.77V135.05H0v777.38H1080L1080,912.43z M816.05,482.62c0,118.33-65.47,183.79-181.87,183.79
	c-116.39,0-181.84-65.45-181.84-183.79v-97.46c0-118.35,65.46-183.77,181.84-183.77c116.4,0,181.87,65.44,181.87,183.77V482.62
	L816.05,482.62z M704.03,488.2V379.59c0-59.86-23.28-82.83-69.85-82.83c-46.55,0-69.84,22.98-69.84,82.82v108.63
	c0,59.84,23.28,82.82,69.84,82.82C680.75,571.03,704.03,548.05,704.03,488.2L704.03,488.2z M1031.84,719.74
	c20.63,0,36.67-4.54,48.16-14.77V460.23c-11.49-10.23-27.52-14.77-48.16-14.77c-46.55,0-69.82,22.96-69.82,82.82v108.62
	C962.02,696.76,985.29,719.74,1031.84,719.74L1031.84,719.74z M306.23,339.49V135.06l-139.67-0.01V339.5
	c0,59.86,23.27,82.82,69.83,82.82C282.95,422.32,306.23,399.36,306.23,339.49L306.23,339.49z"/>
</svg>
